<svg width="43" height="42" viewBox="0 0 43 42" fill="none" xmlns="http://www.w3.org/2000/svg">
<path fill-rule="evenodd" clip-rule="evenodd" d="M12.9405 0.42488C15.1482 0.323245 15.8521 0.300659 21.4759 0.300659C27.0998 0.300659 27.8037 0.325127 30.0096 0.42488C32.2154 0.524633 33.7211 0.876593 35.0386 1.38665C36.4182 1.908 37.6698 2.72297 38.705 3.77696C39.759 4.81026 40.5721 6.05999 41.0916 7.44148C41.6035 8.75898 41.9536 10.2647 42.0552 12.4668C42.1569 14.6783 42.1794 15.3822 42.1794 21.0041C42.1794 26.628 42.155 27.3319 42.0552 29.5396C41.9555 31.7417 41.6035 33.2474 41.0916 34.5649C40.5721 35.9466 39.7577 37.1984 38.705 38.2332C37.6698 39.2872 36.4182 40.1003 35.0386 40.6198C33.7211 41.1317 32.2154 41.4818 30.0133 41.5834C27.8037 41.685 27.0998 41.7076 21.4759 41.7076C15.8521 41.7076 15.1482 41.6832 12.9405 41.5834C10.7384 41.4837 9.23266 41.1317 7.91516 40.6198C6.53353 40.1002 5.28172 39.2858 4.24688 38.2332C3.1936 37.1993 2.37851 35.9481 1.85845 34.5668C1.34839 33.2493 0.998317 31.7436 0.896682 29.5415C0.795047 27.33 0.772461 26.6261 0.772461 21.0041C0.772461 15.3803 0.796929 14.6764 0.896682 12.4705C0.996435 10.2647 1.34839 8.75898 1.85845 7.44148C2.37928 6.06015 3.19499 4.80896 4.24876 3.77508C5.28213 2.72203 6.53268 1.90696 7.91328 1.38665C9.23078 0.876593 10.7365 0.526515 12.9386 0.42488H12.9405ZM29.842 4.15151C27.6588 4.05175 27.0038 4.03105 21.4759 4.03105C15.9481 4.03105 15.2931 4.05175 13.1099 4.15151C11.0903 4.24373 9.99492 4.58063 9.26466 4.86484C8.29912 5.24126 7.60838 5.68733 6.88375 6.41195C6.19686 7.08021 5.66823 7.89372 5.33664 8.79285C5.05244 9.52312 4.71553 10.6185 4.62331 12.6381C4.52356 14.8213 4.50285 15.4763 4.50285 21.0041C4.50285 26.532 4.52356 27.187 4.62331 29.3702C4.71553 31.3898 5.05244 32.4852 5.33664 33.2154C5.66789 34.1132 6.19678 34.9282 6.88375 35.5963C7.55191 36.2833 8.36688 36.8122 9.26466 37.1435C9.99492 37.4277 11.0903 37.7646 13.1099 37.8568C15.2931 37.9565 15.9462 37.9772 21.4759 37.9772C27.0057 37.9772 27.6588 37.9565 29.842 37.8568C31.8616 37.7646 32.957 37.4277 33.6872 37.1435C34.6528 36.767 35.3435 36.321 36.0681 35.5963C36.7551 34.9282 37.284 34.1132 37.6153 33.2154C37.8995 32.4852 38.2364 31.3898 38.3286 29.3702C38.4283 27.187 38.449 26.532 38.449 21.0041C38.449 15.4763 38.4283 14.8213 38.3286 12.6381C38.2364 10.6185 37.8995 9.52312 37.6153 8.79285C37.2388 7.82732 36.7928 7.13657 36.0681 6.41195C35.3998 5.72511 34.5863 5.19649 33.6872 4.86484C32.957 4.58063 31.8616 4.24373 29.842 4.15151V4.15151ZM18.8315 27.3865C20.3084 28.0012 21.9528 28.0842 23.4841 27.6212C25.0153 27.1582 26.3382 26.178 27.227 24.8479C28.1158 23.5179 28.5152 21.9205 28.3571 20.3287C28.199 18.7368 27.4931 17.2492 26.3601 16.12C25.6378 15.3982 24.7644 14.8454 23.8029 14.5016C22.8414 14.1578 21.8155 14.0315 20.7993 14.1317C19.7831 14.232 18.8017 14.5563 17.9259 15.0813C17.05 15.6063 16.3015 16.319 15.7341 17.1681C15.1668 18.0171 14.7947 18.9814 14.6448 19.9915C14.4948 21.0016 14.5707 22.0323 14.8669 23.0096C15.1631 23.9868 15.6723 24.8863 16.3579 25.6431C17.0434 26.3999 17.8883 26.9953 18.8315 27.3865ZM13.9512 13.4794C14.9393 12.4912 16.1125 11.7073 17.4036 11.1726C18.6947 10.6378 20.0785 10.3625 21.4759 10.3625C22.8734 10.3625 24.2572 10.6378 25.5483 11.1726C26.8394 11.7073 28.0126 12.4912 29.0007 13.4794C29.9889 14.4675 30.7728 15.6407 31.3075 16.9318C31.8423 18.2229 32.1176 19.6067 32.1176 21.0041C32.1176 22.4016 31.8423 23.7854 31.3075 25.0765C30.7728 26.3676 29.9889 27.5408 29.0007 28.5289C27.005 30.5246 24.2983 31.6458 21.4759 31.6458C18.6536 31.6458 15.9469 30.5246 13.9512 28.5289C11.9555 26.5332 10.8343 23.8265 10.8343 21.0041C10.8343 18.1818 11.9555 15.4751 13.9512 13.4794V13.4794ZM34.4777 11.9473C34.7226 11.7163 34.9187 11.4385 35.0542 11.1304C35.1898 10.8223 35.2622 10.4901 35.2671 10.1535C35.272 9.81691 35.2094 9.48275 35.0828 9.17081C34.9563 8.85886 34.7684 8.57549 34.5304 8.33745C34.2923 8.09941 34.009 7.91156 33.697 7.785C33.3851 7.65845 33.0509 7.59577 32.7143 7.60068C32.3777 7.60558 32.0455 7.67798 31.7374 7.81357C31.4293 7.94917 31.1515 8.1452 30.9205 8.39008C30.4713 8.86631 30.2253 9.49888 30.2348 10.1535C30.2444 10.8081 30.5087 11.4333 30.9716 11.8962C31.4346 12.3591 32.0597 12.6234 32.7143 12.633C33.3689 12.6425 34.0015 12.3966 34.4777 11.9473V11.9473Z" fill="white"/>
</svg>
